PathFileType	4	(X/Y/Z)	C:/Users/beibeiliu/ov580/test_trc\sequence.40_training_dense_right.trc
DataRate	CameraRate	NumFrames	NumMarkers	Units	OrigDataRate	OrigDataStartFrame	OrigNumFrames
120	120	14	19	mm	120	1	75
Frame#	Time	ThumbCMC			ThumbMCP			ThumbIP			ThumbTip			IndexMCP			IndexPIP			IndexTip			MiddleMCP			MiddlePIP			MiddleTip			RingMCP			RingPIP			RingTip			PinkyMCP			PinkyPIP			PinkyTip			BackHand1			BackHand2			BackHand3	
		X0	Y0	Z0	X1	Y1	Z1	X2	Y2	Z2	X3	Y3	Z3	X4	Y4	Z4	X5	Y5	Z5	X6	Y6	Z6	X7	Y7	Z7	X8	Y8	Z8	X9	Y9	Z9	X10	Y10	Z10	X11	Y11	Z11	X12	Y12	Z12	X13	Y13	Z13	X14	Y14	Z14	X15	Y15	Z15	X16	Y16	Z16	X17	Y17	Z17	X18	Y18	Z18	
0	0	165.902	54.9696	156.143	143.755	82.1871	144.91	126.691	94.8157	125.454	113.152	102.27	109.109	145.25	58.5922	86.0059	123.375	77.2859	75.5589	106.678	91.8893	69.8457	122.089	49.6597	93.1683	108.198	72.6143	111.733	128.204	59.1746	141.189	109.899	42.8754	105.726	105.574	59.1069	131.26	130.976	41.7461	148.116	103.106	30.847	115.002	101.744	46.9038	140.022	126.202	32.5009	154.495	145.76	3.74807	125.015	160.349	-4.33628	154.453	175.039	22.0163	138.622	
1	0.00833333	177.951	43.6277	150.738	160.703	65.3211	139.504	149.479	80.0112	113.993	141.925	92.3909	98.9523	165.953	39.6159	84.1263	151.952	59.8898	67.1656	131.727	74.8302	57.4207	144.96	35.9697	89.0333	130.623	62.2841	106.097	145.409	47.9407	136.092	128.089	33.8207	98.6208	117.147	48.9825	120.627	142.265	34.2855	142.732	117.879	20.6666	109.868	115.899	41.0827	131.779	139.505	24.8686	145.592	153.317	-9.01885	128.713	162.355	-15.0276	159.905	184.16	5.75387	139.84	
2	0.0166667	192.81	29.6463	156.396	176.924	48.9296	132.568	172.737	62.8986	107.304	168.036	69.7296	88.1426	188.267	16.6416	84.3081	181.949	33.5796	66.0702	164.629	46.909	49.6133	164.623	19.3037	84.4874	153.161	45.0018	97.4182	162.438	32.832	131.885	146.376	13.4901	94.3425	139.692	36.0956	109.519	154.371	23.2059	138.569	135.798	6.26062	103.548	131.32	27.7952	121.458	149.464	16.0286	142.829	164.586	-24.7966	131.784	167.39	-28.9844	162.718	194.445	-12.2894	147.677	
3	0.025	206.677	20.7439	156.031	194.902	38.9404	132.601	193.17	45.4027	101.938	192.156	53.2734	81.9751	215.684	-1.72085	91.282	209.127	13.7832	64.9584	195.547	22.454	45.7756	187.021	-2.68815	86.5344	172.891	26.6787	93.7739	176.846	20.2598	128.26	171.413	-2.14851	91.6042	160.276	22.9028	107.1	171.446	13.6909	136.426	158.012	-10.797	102.045	151.137	13.9673	113.088	166.43	3.23542	142.935	184.678	-36.7387	137.878	179.082	-34.0699	171.485	211.433	-19.6682	152.858	
4	0.0333333	218.278	23.1607	158.971	206.43	35.9093	132.339	208.275	41.0314	103.019	208.642	44.5091	80.3501	238.135	-5.02964	96.7395	237.339	5.76381	74.4543	224.992	11.7459	50.7716	217.021	-8.33801	94.6507	195.891	19.6756	93.4217	193.514	19.734	127.06	197.005	-12.7584	98.1872	182.161	15.8078	105.064	186.118	10.78	138.232	180.401	-21.6156	104.407	171.246	7.80698	113.002	181.057	-0.623854	142.381	203.117	-37.6178	147.957	192.6	-36.6071	177.304	221.681	-19.405	165.384	
5	0.0416667	220.408	34.6723	161.385	209.076	41.7616	133.619	210.877	47.1487	108.451	214.128	48.9764	84.6477	255.406	13.6329	106.992	250.452	17.6889	79.823	247.261	27.1241	54.8998	234.075	0.786195	100.293	208.801	21.3431	92.4098	202.077	25.0881	127.164	216.962	-3.92888	99.9819	193.028	14.4613	102.707	195.627	16.478	135.262	201.301	-17.3025	104.221	186.867	5.77384	109.21	191.885	2.70196	145.525	220.617	-30.6121	150.516	210.353	-25.6281	179.064	235.56	-4.82624	168.674	
6	0.05	212.102	44.8479	162.668	201.365	53.0333	133.201	204.932	58.0446	103.926	207.046	58.913	82.8241	256.737	36.006	110.949	254.408	43.7237	84.2946	248.345	40.3241	59.6403	243.291	21.0687	103.394	213.808	31.5751	94.0057	203.462	30.9326	129.127	226.551	4.49127	101.209	198.675	17.291	103.306	197.008	18.8029	136.412	219.042	-9.22039	109.528	192.479	6.41406	112.295	199.296	7.43587	145.942	236.319	-11.7539	158.151	221.016	-10.3459	184.284	239.367	17.3551	173.224	
7	0.0583333	194.71	52.8562	162.744	186.632	54.1195	128.981	189.475	57.8542	101.018	194.346	59.2933	77.3599	245.847	61.438	110.187	241.471	61.1937	81.6279	239.574	60.6221	56.3609	237.712	37.5655	101.75	207.359	36.8627	93.6673	198.861	31.9075	131.286	229.166	17.1471	101.569	198.819	17.9074	103.627	196.415	23.8027	135.154	229.017	1.84371	111.005	199.673	8.04536	109.562	198.988	11.0636	145.394	245.252	10.6885	156.668	225.933	4.69713	186.952	231.572	39.6911	176.16	
8	0.0666667	179.806	48.2336	152.961	168.162	44.5617	122.971	171.463	46.217	96.9686	175.022	47.4539	72.771	222.737	70.3227	103.063	220.182	70.9168	77.1185	220.655	65.4085	54.937	224.998	45.7724	98.4283	195.26	31.7542	90.7341	186.127	28.9967	121.103	225.199	27.7397	102.23	196.429	16.5585	99.4333	191.946	20.1623	135.567	227.397	9.67864	107.945	197.922	6.74274	110.756	197.592	7.97437	142.392	239.947	24.1766	155.598	224.278	15.5292	181.96	214.708	47.511	171.291	
9	0.075	157.221	37.4136	150.895	151.027	27.2652	117.333	153.003	27.8524	91.2248	158.416	28.2268	66.2623	198.502	65.2047	94.53	192.988	64.4728	71.34	195.474	55.1674	43.435	203.258	43.6248	89.3009	181.918	19.0474	86.0272	172.351	17.2473	117.761	211.863	24.1675	97.8186	187.034	6.27307	97.8008	181.65	12.7373	131.549	219.526	7.32956	105.275	192.118	-3.59076	110.794	188.585	7.35591	140.889	220.245	33.6639	151.471	213.303	22.6778	176.873	196.661	48.552	165.815	
10	0.0833333	142.613	22.1725	145.262	132.766	7.85774	113.749	132.756	3.22617	87.2546	139.883	1.47124	64.214	170.063	50.6886	88.9482	166.728	43.2428	59.0049	173.594	32.9224	38.6754	183.604	26.2509	84.5465	169.59	-1.08704	81.7858	160.174	0.0394182	117.308	193.218	8.33424	91.8269	173.595	-12.0008	99.7237	169.003	0.158431	131.539	204.94	-2.76254	103.927	180.877	-16.5144	112.784	177.746	0.625609	142.986	201.93	30.5852	146.471	196.327	23.2568	175.978	173.924	40.5275	157.575	
11	0.0916667	123.472	7.53084	149.654	119.221	-9.33884	121.215	115.319	-16.6162	89.7442	116.619	-21.6785	66.6963	143.361	31.2199	81.5321	142.228	20.0238	56.2459	143.049	6.20252	33.7734	159.415	11.3372	83.5371	147.454	-20.48	85.2369	139.996	-13.9077	120.085	172.438	-6.84129	90.5538	156.884	-28.5322	104.178	153.315	-8.85504	133.334	180.659	-14.1473	101.558	163.322	-30.0704	119.219	164.879	-9.89253	144.143	186.584	22.8711	135.579	180.88	18.7531	168.947	152.95	33.8293	148.22	
12	0.1	108.711	4.14729	152.296	101.849	-16.5179	127.41	94.6687	-26.1764	103.711	92.5795	-32.6556	80.2888	121.561	19.1108	79.1338	117.427	4.58322	58.5773	112.298	-8.02379	41.0361	136.391	-4.61146	80.4068	126.824	-32.7241	93.2951	126.06	-21.1956	124.932	149.391	-19.9109	91.578	136.412	-38.7308	113.099	135.734	-15.3367	136.533	162.457	-27.8206	101.883	144.234	-37.7901	122.166	147.704	-14.7226	144.099	171.207	16.7607	131.835	169.922	13.4938	163.802	141.812	29.9327	149.625	
13	0.108333	105.963	10.1287	153.913	87.1954	-9.53502	134.339	77.1363	-17.1642	111.469	68.5803	-25.021	92.5252	111.945	16.4201	84.534	99.2956	3.18976	63.6292	86.9931	-12.5455	43.9955	124.246	-8.27023	85.4768	103.965	-31.6854	95.8709	111.132	-16.9759	131.619	129.439	-27.8476	94.6276	111.261	-35.4308	114.696	121.409	-18.9789	140.282	144.099	-35.1721	104.85	124.102	-39.4057	129.472	131.646	-18.1233	146.372	162.125	7.43319	131.818	165.244	7.63638	159.7	139.024	29.3392	148.415	
